<?xml version="1.0" encoding="utf-8"?>
<!-- Generator: Adobe Illustrator 16.0.3, SVG Export Plug-In . SVG Version: 6.00 Build 0)  -->
<!DOCTYPE svg PUBLIC "-//W3C//DTD SVG 1.1//EN" "http://www.w3.org/Graphics/SVG/1.1/DTD/svg11.dtd">
<svg version="1.1" id="レイヤー_1" xmlns="http://www.w3.org/2000/svg" xmlns:xlink="http://www.w3.org/1999/xlink" x="0px"
	 y="0px" width="160px" height="160px" viewBox="0 0 160 160" enable-background="new 0 0 160 160" xml:space="preserve">
<linearGradient id="SVGID_1_" gradientUnits="userSpaceOnUse" x1="46.8389" y1="40.3496" x2="113.8256" y2="120.1813">
	<stop  offset="0" style="stop-color:#FDFDFD"/>
	<stop  offset="0.0757" style="stop-color:#E4E4E4"/>
	<stop  offset="0.2342" style="stop-color:#B7B7B7"/>
	<stop  offset="0.3934" style="stop-color:#909090"/>
	<stop  offset="0.5506" style="stop-color:#737373"/>
	<stop  offset="0.7053" style="stop-color:#5E5E5E"/>
	<stop  offset="0.8565" style="stop-color:#515151"/>
	<stop  offset="1" style="stop-color:#4D4D4D"/>
</linearGradient>
<circle fill="url(#SVGID_1_)" stroke="#4D4D4D" stroke-width="0.2835" cx="80.332" cy="80.267" r="52.105"/>
<linearGradient id="SVGID_2_" gradientUnits="userSpaceOnUse" x1="45.4482" y1="52.9658" x2="116.085" y2="123.6026" gradientTransform="matrix(0.9995 -0.0324 0.0324 0.9995 -3.2539 -5.3584)">
	<stop  offset="0" style="stop-color:#D6D8D7"/>
	<stop  offset="0.2888" style="stop-color:#CBCECC"/>
	<stop  offset="0.6461" style="stop-color:#B8BCB9"/>
</linearGradient>
<path fill="url(#SVGID_2_)" d="M30.386,81.884c0.892,27.538,24.023,49.219,51.563,48.327s49.222-24.024,48.33-51.562
	c-0.892-27.541-24.024-49.222-51.564-48.33C51.175,31.211,29.494,54.344,30.386,81.884z"/>
<linearGradient id="SVGID_3_" gradientUnits="userSpaceOnUse" x1="102.9883" y1="107.2695" x2="57.6736" y2="53.2656">
	<stop  offset="0" style="stop-color:#FFFFFF"/>
	<stop  offset="0.045" style="stop-color:#EBEBEB"/>
	<stop  offset="0.1523" style="stop-color:#C1C1C1"/>
	<stop  offset="0.2656" style="stop-color:#9D9D9D"/>
	<stop  offset="0.3839" style="stop-color:#808080"/>
	<stop  offset="0.509" style="stop-color:#696969"/>
	<stop  offset="0.644" style="stop-color:#595959"/>
	<stop  offset="0.7958" style="stop-color:#4F4F4F"/>
	<stop  offset="1" style="stop-color:#4D4D4D"/>
</linearGradient>
<path fill="url(#SVGID_3_)" d="M45.067,80.269c0,19.442,15.818,35.261,35.264,35.261s35.266-15.818,35.266-35.261
	c0-19.444-15.82-35.266-35.266-35.266S45.067,60.824,45.067,80.269z"/>
<circle fill="#FFFFFF" stroke="#4D4D4D" stroke-width="0.2835" cx="80.332" cy="80.268" r="33.695"/>
<g>
	<polygon fill-rule="evenodd" clip-rule="evenodd" fill="#C81042" points="89.016,68.655 73.728,94.945 86.937,94.945 
		102.368,69.357 	"/>
	<linearGradient id="SVGID_4_" gradientUnits="userSpaceOnUse" x1="65.8716" y1="61.7817" x2="79.3263" y2="75.2364">
		<stop  offset="0.0056" style="stop-color:#FDEFF3"/>
		<stop  offset="0.0762" style="stop-color:#F7C3D1"/>
		<stop  offset="0.1491" style="stop-color:#F097B0"/>
		<stop  offset="0.2208" style="stop-color:#EB6E96"/>
		<stop  offset="0.2897" style="stop-color:#E84A84"/>
		<stop  offset="0.3551" style="stop-color:#E62777"/>
		<stop  offset="0.4156" style="stop-color:#E50070"/>
		<stop  offset="0.4663" style="stop-color:#E5006E"/>
	</linearGradient>
	<path fill-rule="evenodd" clip-rule="evenodd" fill="url(#SVGID_4_)" d="M88.599,69.357l-3.818-3.813H62.109l-3.813,3.813H88.599z"
		/>
	<linearGradient id="SVGID_5_" gradientUnits="userSpaceOnUse" x1="84.2051" y1="72.4326" x2="72.9906" y2="56.4168">
		<stop  offset="0.0169" style="stop-color:#FFFFFF"/>
		<stop  offset="0.0654" style="stop-color:#FBD7E8"/>
		<stop  offset="0.1648" style="stop-color:#F38CBD"/>
		<stop  offset="0.2536" style="stop-color:#ED509B"/>
		<stop  offset="0.3287" style="stop-color:#E92483"/>
		<stop  offset="0.3869" style="stop-color:#E60A74"/>
		<stop  offset="0.4213" style="stop-color:#E5006E"/>
		<stop  offset="1" style="stop-color:#C81042"/>
	</linearGradient>
	<polygon fill-rule="evenodd" clip-rule="evenodd" fill="url(#SVGID_5_)" points="88.599,69.357 93.526,60.519 67.134,60.519 
		61.878,65.773 85.013,65.773 	"/>
	<linearGradient id="SVGID_6_" gradientUnits="userSpaceOnUse" x1="88.1201" y1="67.5703" x2="100.9672" y2="64.1279">
		<stop  offset="0.0056" style="stop-color:#FFFFFF"/>
		<stop  offset="0.322" style="stop-color:#DB6384"/>
		<stop  offset="0.5" style="stop-color:#C81042"/>
	</linearGradient>
	<polygon fill-rule="evenodd" clip-rule="evenodd" fill="url(#SVGID_6_)" points="88.599,69.357 102.368,69.357 93.526,60.519 	"/>
	<linearGradient id="SVGID_7_" gradientUnits="userSpaceOnUse" x1="78.6016" y1="89.1377" x2="56.9458" y2="70.9664">
		<stop  offset="0.0056" style="stop-color:#FFFFFF"/>
		<stop  offset="0.1152" style="stop-color:#FACBE2"/>
		<stop  offset="0.2433" style="stop-color:#F496C3"/>
		<stop  offset="0.3731" style="stop-color:#F068A9"/>
		<stop  offset="0.502" style="stop-color:#EC4394"/>
		<stop  offset="0.6297" style="stop-color:#E92583"/>
		<stop  offset="0.756" style="stop-color:#E71177"/>
		<stop  offset="0.8802" style="stop-color:#E50470"/>
		<stop  offset="1" style="stop-color:#E5006E"/>
	</linearGradient>
	<polygon fill-rule="evenodd" clip-rule="evenodd" fill="url(#SVGID_7_)" points="66.823,69.357 58.296,69.357 73.728,94.945 
		77.649,88.188 	"/>
	<linearGradient id="SVGID_8_" gradientUnits="userSpaceOnUse" x1="82.123" y1="69.3574" x2="82.123" y2="60.4726">
		<stop  offset="0" style="stop-color:#FFFFFF"/>
		<stop  offset="0.2798" style="stop-color:#FFFFFF"/>
		<stop  offset="0.3258" style="stop-color:#FFFFFF"/>
		<stop  offset="0.3955" style="stop-color:#FEFAFB"/>
		<stop  offset="0.4823" style="stop-color:#FAEAEF"/>
		<stop  offset="0.5781" style="stop-color:#F4D1DB"/>
		<stop  offset="0.6804" style="stop-color:#ECAEBF"/>
		<stop  offset="0.788" style="stop-color:#E2809B"/>
		<stop  offset="0.8982" style="stop-color:#D5496F"/>
		<stop  offset="1" style="stop-color:#C81042"/>
	</linearGradient>
	<polygon fill-rule="evenodd" clip-rule="evenodd" fill="url(#SVGID_8_)" points="93.526,60.519 67.134,60.519 61.878,65.773 
		85.013,65.773 88.599,69.357 102.368,69.357 	"/>
</g>
<g>
	<path fill="#FFFFFF" d="M68.582,127.037c-0.695-0.065-1.432-0.173-2.101-0.398c-2.854-0.962-4.355-3.057-3.351-6.036
		c1.017-3.018,3.43-4.088,6.422-3.079c0.581,0.195,1.313,0.568,1.872,1.038l-0.628,1.447c-0.542-0.604-1.118-0.897-1.749-1.109
		c-1.818-0.613-3.422,0.393-4.031,2.198c-0.604,1.793,0.052,3.518,1.933,4.152c0.694,0.233,1.566,0.358,2.055,0.284L68.582,127.037z
		"/>
	<path fill="#FFFFFF" d="M76.503,128.021c-0.696,0.267-1.461,0.349-2.411,0.217c-2.244-0.313-3.37-1.787-3.06-4.017
		c0.273-1.967,1.542-3.444,3.653-3.151c2.521,0.351,2.993,2.179,2.663,4.554l-4.698-0.653c-0.073,1.106,0.606,1.833,1.701,1.985
		c0.858,0.119,1.641-0.095,2.352-0.372L76.503,128.021z M75.828,124.174c0.066-0.864-0.227-1.659-1.216-1.796
		c-0.99-0.138-1.586,0.479-1.792,1.378L75.828,124.174z"/>
	<path fill="#FFFFFF" d="M79.113,121.64l1.585-0.014l0.014,1.559h0.026c0.074-0.641,0.797-1.727,1.863-1.735
		c0.174-0.002,0.359-0.004,0.547,0.048l0.016,1.799c-0.16-0.092-0.48-0.143-0.801-0.14c-1.452,0.013-1.436,1.825-1.427,2.811
		l0.022,2.519l-1.785,0.016L79.113,121.64z"/>
	<path fill="#FFFFFF" d="M85.461,122.639l-1.305,0.193l-0.191-1.292l1.305-0.192l-0.201-1.357l1.683-0.828l0.284,1.924l1.568-0.232
		l0.191,1.292l-1.568,0.232l0.469,3.162c0.086,0.58,0.324,1.098,0.996,0.998c0.316-0.047,0.609-0.158,0.776-0.304l0.259,1.39
		c-0.354,0.159-0.754,0.272-1.281,0.351c-1.383,0.205-2.274-0.539-2.474-1.883L85.461,122.639z"/>
	<path fill="#FFFFFF" d="M89.061,117.669l1.727-0.45l0.432,1.649l-1.729,0.451L89.061,117.669z M89.807,120.531l1.728-0.451
		l1.733,6.639l-1.729,0.451L89.807,120.531z"/>
	<path fill="#FFFFFF" d="M94.268,120.587l-1.234,0.465l-0.461-1.222l1.234-0.465l-0.338-0.898c-0.483-1.284-0.099-2.454,1.223-2.951
		c0.424-0.16,0.922-0.276,1.273-0.323l0.385,1.436c-0.183-0.031-0.446-0.088-0.808,0.048c-0.562,0.211-0.553,0.764-0.364,1.262
		l0.3,0.798l1.459-0.549l0.46,1.222l-1.459,0.55l1.958,5.199l-1.671,0.629L94.268,120.587z"/>
	<path fill="#FFFFFF" d="M96.893,114.887l1.589-0.814l0.778,1.518l-1.589,0.814L96.893,114.887z M98.242,117.519l1.589-0.814
		l3.131,6.105l-1.589,0.814L98.242,117.519z"/>
	<path fill="#FFFFFF" d="M109.533,118.165c-0.334,0.666-0.844,1.243-1.633,1.787c-1.865,1.284-3.692,0.957-4.969-0.897
		c-1.127-1.635-1.189-3.581,0.566-4.79c2.096-1.443,3.678-0.414,5.039,1.562l-3.906,2.689c0.692,0.865,1.684,0.943,2.595,0.315
		c0.713-0.491,1.146-1.178,1.483-1.862L109.533,118.165z M106.438,115.783c-0.535-0.683-1.288-1.07-2.111-0.504
		c-0.822,0.566-0.847,1.425-0.391,2.227L106.438,115.783z"/>
	<path fill="#FFFFFF" d="M114.808,112.969l-0.019,0.019c0.094,0.848-0.236,1.555-0.83,2.147c-1.488,1.488-3.259,0.811-4.587-0.519
		c-1.338-1.338-1.978-3.071-0.489-4.56c0.631-0.631,1.291-0.857,2.129-0.772l0.02-0.019l-2.779-2.779l1.263-1.263l7.064,7.066
		l-1.226,1.225L114.808,112.969z M113.328,113.807c0.84-0.838,0.227-1.997-0.461-2.685c-0.678-0.679-1.865-1.226-2.676-0.415
		c-0.818,0.819-0.15,1.94,0.5,2.591C111.359,113.967,112.5,114.636,113.328,113.807z"/>
</g>
<g>
	<path fill="#FFFFFF" d="M48.819,109.883l-3.321,2.979l-1.122-1.255l6.922-6.211l1.564,1.742c1.377,1.504,1.888,3.046,0.569,4.234
		c-0.805,0.718-2.385,0.834-3.528-0.239C49.504,110.757,48.819,109.883,48.819,109.883z M49.166,109.593l0.214,0.214
		c1.113,1.056,2.181,0.896,2.87,0.276c0.972-0.874,0.551-1.952,0.015-2.548c-0.309-0.346-0.318-0.362-0.367-0.362
		c-0.048-0.004-0.049,0.018-0.413,0.344L49.166,109.593z"/>
	<path fill="#FFFFFF" d="M48.771,109.863c-0.256,1.23-0.588,3.056-1.133,5.379l1.301,1.451c0.584-2.549,1.254-5.519,1.254-5.519
		l-0.661-0.978L48.771,109.863z"/>
</g>
<g>
	<polygon fill="#FFFFFF" points="55.959,121.694 54.38,120.559 57.844,111.601 59.426,112.732 	"/>
	<polygon fill="#FFFFFF" points="50.971,118.115 50.015,117.437 57.844,111.601 58.725,112.231 	"/>
	<polygon fill="#FFFFFF" points="52.636,116.205 55.471,118.243 56.059,117.423 53.225,115.391 	"/>
</g>
<g>
	<path fill="#1A1A1A" d="M68.281,126.39c-0.694-0.069-1.43-0.182-2.098-0.412c-2.847-0.979-4.334-3.083-3.312-6.056
		c1.036-3.011,3.456-4.065,6.441-3.038c0.58,0.199,1.309,0.577,1.865,1.05l-0.638,1.443c-0.538-0.608-1.112-0.904-1.742-1.121
		c-1.813-0.624-3.424,0.371-4.044,2.173c-0.615,1.788,0.029,3.518,1.906,4.164c0.693,0.238,1.563,0.368,2.053,0.298L68.281,126.39z"
		/>
	<path fill="#1A1A1A" d="M76.089,127.415c-0.698,0.261-1.463,0.336-2.412,0.195c-2.24-0.332-3.354-1.816-3.024-4.043
		c0.291-1.964,1.572-3.431,3.68-3.118c2.517,0.373,2.973,2.204,2.622,4.576l-4.691-0.694c-0.083,1.104,0.589,1.838,1.683,1.999
		c0.856,0.127,1.642-0.08,2.355-0.351L76.089,127.415z M75.448,123.563c0.074-0.864-0.212-1.661-1.2-1.808
		c-0.989-0.146-1.591,0.465-1.805,1.362L75.448,123.563z"/>
	<path fill="#1A1A1A" d="M78.661,121.056l1.585,0.004l-0.004,1.559h0.027c0.082-0.64,0.816-1.717,1.883-1.714
		c0.173,0,0.359,0,0.545,0.054l-0.004,1.799c-0.159-0.094-0.479-0.147-0.799-0.148c-1.452-0.003-1.456,1.809-1.458,2.794
		l-0.006,2.518l-1.785-0.004L78.661,121.056z"/>
	<path fill="#1A1A1A" d="M85.037,122.121l-1.307,0.18l-0.178-1.293l1.307-0.18l-0.188-1.359l1.69-0.811l0.265,1.927l1.57-0.216
		l0.178,1.293l-1.57,0.216l0.436,3.168c0.08,0.58,0.313,1.1,0.986,1.007c0.316-0.043,0.611-0.151,0.779-0.295l0.245,1.392
		c-0.354,0.156-0.757,0.265-1.285,0.338c-1.386,0.19-2.269-0.563-2.454-1.908L85.037,122.121z"/>
	<path fill="#1A1A1A" d="M88.605,117.208l1.732-0.429l0.41,1.655l-1.732,0.429L88.605,117.208z M89.316,120.079l1.732-0.43
		l1.649,6.659l-1.732,0.43L89.316,120.079z"/>
	<path fill="#1A1A1A" d="M93.684,120.22l-1.24,0.447l-0.441-1.229l1.24-0.446l-0.324-0.903c-0.465-1.291-0.063-2.455,1.266-2.933
		c0.426-0.153,0.925-0.263,1.277-0.305l0.363,1.441c-0.182-0.034-0.445-0.095-0.809,0.036c-0.563,0.202-0.563,0.755-0.383,1.256
		l0.289,0.802l1.467-0.527l0.441,1.229l-1.467,0.527l1.882,5.227l-1.68,0.604L93.684,120.22z"/>
	<path fill="#1A1A1A" d="M96.316,114.596l1.602-0.788l0.752,1.53l-1.602,0.788L96.316,114.596z M97.621,117.249l1.602-0.787
		l3.027,6.156l-1.602,0.787L97.621,117.249z"/>
	<path fill="#1A1A1A" d="M108.811,118.148c-0.346,0.659-0.865,1.227-1.666,1.755c-1.889,1.249-3.709,0.888-4.951-0.991
		c-1.094-1.655-1.119-3.603,0.658-4.778c2.123-1.402,3.686-0.344,5.008,1.657l-3.957,2.614c0.677,0.879,1.666,0.975,2.589,0.365
		c0.723-0.478,1.169-1.155,1.519-1.834L108.811,118.148z M105.761,115.709c-0.522-0.693-1.267-1.096-2.101-0.544
		c-0.833,0.551-0.873,1.407-0.434,2.219L105.761,115.709z"/>
	<path fill="#1A1A1A" d="M114.111,113.129l-0.02,0.019c0.076,0.85-0.27,1.549-0.875,2.13c-1.52,1.456-3.275,0.74-4.575-0.616
		c-1.309-1.366-1.911-3.112-0.392-4.568c0.645-0.617,1.309-0.829,2.145-0.727l0.02-0.019l-2.719-2.838l1.289-1.234l6.912,7.214
		l-1.251,1.198L114.111,113.129z M112.614,113.936c0.856-0.82,0.269-1.991-0.403-2.693c-0.664-0.692-1.839-1.265-2.666-0.472
		c-0.837,0.802-0.192,1.937,0.443,2.601C110.643,114.054,111.768,114.747,112.614,113.936z"/>
</g>
<g>
	<path fill="#1A1A1A" d="M48.601,109.316l-3.372,2.921l-1.102-1.274l7.031-6.089l1.533,1.767c1.35,1.527,1.833,3.08,0.496,4.248
		c-0.819,0.704-2.4,0.789-3.525-0.303C49.27,110.202,48.601,109.316,48.601,109.316z M48.953,109.034l0.208,0.218
		c1.096,1.074,2.165,0.932,2.866,0.323c0.986-0.855,0.584-1.939,0.06-2.544c-0.304-0.35-0.313-0.366-0.362-0.373
		c-0.049-0.003-0.047,0.019-0.418,0.339L48.953,109.034z"/>
	<path fill="#1A1A1A" d="M48.552,109.299c-0.274,1.224-0.64,3.046-1.225,5.357l1.274,1.471c0.629-2.535,1.35-5.494,1.35-5.494
		l-0.645-0.988L48.552,109.299z"/>
</g>
<g>
	<polygon fill="#1A1A1A" points="55.526,121.255 53.967,120.096 57.587,111.195 59.149,112.355 	"/>
	<polygon fill="#1A1A1A" points="50.6,117.589 49.657,116.892 57.587,111.195 58.457,111.843 	"/>
	<polygon fill="#1A1A1A" points="52.3,115.712 55.1,117.793 55.703,116.987 52.902,114.904 	"/>
</g>
<g>
	<path fill="#FFFFFF" d="M118.857,85.396l0.328-4.569l0.692,0.05c2.522,2.079,3.258,3.727,5.034,3.854
		c0.85,0.061,1.66-0.297,1.727-1.224c0.043-0.581-0.303-1.1-0.704-1.129c-0.357-0.025-0.341,0.357-0.787,0.325
		c-0.335-0.023-0.54-0.297-0.517-0.621c0.033-0.457,0.465-0.686,0.878-0.655c1.095,0.079,1.597,1.384,1.53,2.3
		c-0.095,1.318-0.92,2.336-2.339,2.234c-1.921-0.138-2.45-2.478-4.599-4.294l-0.167,2.323c-0.094,1.308,0.684,0.802,0.642,1.383
		l-0.014,0.201L118.857,85.396z"/>
	<path fill="#FFFFFF" d="M118.324,87.347c0.066-0.363,0.431-0.616,0.795-0.55c0.363,0.064,0.616,0.43,0.551,0.793
		c-0.066,0.363-0.43,0.616-0.794,0.551S118.26,87.711,118.324,87.347z"/>
	<path fill="#FFFFFF" d="M125.013,91.402l0.221,1.738l-0.177,0.625l-6.555-1.846c-0.83-0.234-0.504,0.882-1.097,0.715l-0.194-0.055
		l0.82-2.911l0.193,0.055c0.594,0.167-0.261,0.927,0.569,1.161l5.573,1.569l0.322-1.143L125.013,91.402z"/>
</g>
<g>
	<path fill="#231815" d="M118.922,84.85l0.263-4.573l0.692,0.04c2.553,2.043,3.312,3.68,5.09,3.781
		c0.85,0.05,1.656-0.318,1.709-1.247c0.033-0.581-0.318-1.095-0.721-1.118c-0.357-0.021-0.335,0.361-0.782,0.336
		c-0.335-0.02-0.544-0.289-0.525-0.613c0.026-0.458,0.454-0.692,0.868-0.668c1.096,0.063,1.616,1.36,1.563,2.277
		c-0.075,1.319-0.887,2.35-2.307,2.268c-1.923-0.11-2.484-2.442-4.658-4.229l-0.135,2.326c-0.074,1.309,0.695,0.792,0.662,1.373
		l-0.012,0.201L118.922,84.85z"/>
	<path fill="#231815" d="M118.417,86.811c0.06-0.365,0.421-0.623,0.786-0.563c0.363,0.061,0.622,0.421,0.562,0.785
		c-0.061,0.365-0.421,0.623-0.786,0.563C118.614,87.535,118.356,87.175,118.417,86.811z"/>
	<path fill="#231815" d="M125.163,90.77l0.245,1.734l-0.167,0.627l-6.581-1.752c-0.832-0.222-0.491,0.889-1.086,0.73l-0.195-0.052
		l0.778-2.922l0.194,0.052c0.596,0.158-0.248,0.931,0.586,1.152l5.596,1.49l0.305-1.147L125.163,90.77z"/>
</g>
<g>
	<path fill="#FFFFFF" d="M43.781,68.953l-0.427,2.181c-0.847,0.334-1.583,0.642-2.208,0.922c-0.625,0.281-1.273,0.592-1.945,0.932
		l-0.166,0.848l2.558,0.5c0.132,0.026,0.253,0.028,0.362,0.006c0.108-0.022,0.203-0.096,0.282-0.222
		c0.04-0.063,0.088-0.177,0.144-0.343c0.056-0.166,0.097-0.308,0.124-0.424l0.399,0.078l-0.666,3.404l-0.399-0.078
		c0.01-0.092,0.022-0.225,0.037-0.4c0.015-0.175,0.014-0.299-0.004-0.373c-0.027-0.123-0.083-0.219-0.169-0.288
		s-0.203-0.119-0.351-0.148l-5.865-1.147c-0.133-0.026-0.255-0.03-0.365-0.013c-0.11,0.018-0.206,0.091-0.286,0.22
		c-0.053,0.087-0.108,0.204-0.166,0.349s-0.102,0.27-0.13,0.374l-0.398-0.078l0.73-3.733c0.067-0.342,0.165-0.656,0.294-0.943
		c0.129-0.286,0.296-0.536,0.5-0.749c0.199-0.206,0.435-0.355,0.708-0.447s0.583-0.105,0.93-0.037
		c0.313,0.062,0.581,0.163,0.802,0.305c0.222,0.142,0.402,0.324,0.541,0.544c0.13,0.203,0.232,0.437,0.306,0.7
		s0.123,0.548,0.15,0.854c0.606-0.296,1.116-0.542,1.528-0.736s0.915-0.433,1.507-0.716c0.261-0.123,0.459-0.242,0.594-0.355
		c0.135-0.114,0.25-0.231,0.345-0.351c0.069-0.089,0.131-0.206,0.187-0.349c0.056-0.143,0.095-0.264,0.118-0.362L43.781,68.953z
		 M37.165,70.779c-0.489-0.096-0.905-0.031-1.247,0.196c-0.341,0.226-0.563,0.597-0.663,1.111l-0.19,0.973l3.465,0.678l0.147-0.75
		c0.103-0.526,0.021-0.998-0.247-1.415C38.163,71.157,37.742,70.892,37.165,70.779z"/>
	<path fill="#FFFFFF" d="M39.676,58.788c-0.039,0.102-0.08,0.258-0.122,0.469c-0.042,0.21-0.05,0.393-0.023,0.548
		c0.031,0.157,0.166,0.313,0.403,0.468c0.238,0.156,0.542,0.312,0.915,0.468l3.31,1.396c0.422,0.178,0.752,0.42,0.989,0.726
		c0.238,0.306,0.396,0.643,0.477,1.013c0.075,0.363,0.088,0.718,0.041,1.065s-0.131,0.663-0.251,0.948
		c-0.192,0.456-0.424,0.836-0.694,1.142s-0.558,0.537-0.864,0.692c-0.305,0.153-0.614,0.234-0.928,0.244
		c-0.313,0.01-0.614-0.045-0.9-0.166l-4.501-1.899c-0.125-0.053-0.239-0.076-0.34-0.07c-0.102,0.006-0.215,0.057-0.339,0.153
		c-0.088,0.069-0.177,0.168-0.267,0.296s-0.158,0.236-0.203,0.323l-0.375-0.158l1.33-3.153l0.375,0.158
		c-0.038,0.101-0.075,0.232-0.109,0.395c-0.035,0.162-0.055,0.284-0.06,0.365c-0.008,0.139,0.03,0.249,0.113,0.332
		s0.184,0.149,0.301,0.199l4.204,1.773c0.204,0.086,0.427,0.154,0.669,0.203c0.242,0.05,0.488,0.049,0.737-0.002
		c0.255-0.057,0.497-0.179,0.723-0.366c0.226-0.187,0.428-0.49,0.604-0.909c0.166-0.394,0.243-0.75,0.23-1.07
		c-0.013-0.319-0.088-0.599-0.227-0.839c-0.131-0.228-0.289-0.417-0.475-0.567c-0.185-0.15-0.385-0.27-0.6-0.36l-3.121-1.317
		c-0.397-0.167-0.733-0.275-1.009-0.325s-0.477-0.036-0.602,0.041c-0.142,0.087-0.283,0.228-0.424,0.421
		c-0.141,0.194-0.239,0.346-0.294,0.457l-0.375-0.158l1.306-3.095L39.676,58.788z"/>
	<path fill="#FFFFFF" d="M46.844,55.267c0.269-0.109,0.557-0.157,0.864-0.142c0.307,0.014,0.617,0.126,0.93,0.334
		c0.319,0.213,0.55,0.468,0.692,0.764s0.215,0.605,0.218,0.929c0.004,0.315-0.046,0.634-0.151,0.958
		c-0.105,0.324-0.254,0.631-0.448,0.921l-2.171,3.248l-0.337-0.226c0.045-0.082,0.107-0.204,0.186-0.367
		c0.078-0.163,0.125-0.286,0.139-0.37c0.021-0.13,0.009-0.242-0.039-0.334s-0.131-0.179-0.251-0.259l-4.939-3.301
		c-0.11-0.074-0.219-0.119-0.328-0.138c-0.109-0.019-0.226,0.01-0.352,0.086c-0.114,0.065-0.224,0.15-0.33,0.253
		c-0.106,0.103-0.19,0.193-0.251,0.271l-0.337-0.226l2.119-3.171c0.164-0.245,0.345-0.464,0.543-0.656
		c0.198-0.192,0.427-0.349,0.685-0.47c0.24-0.115,0.498-0.169,0.773-0.163c0.275,0.007,0.552,0.103,0.829,0.288
		c0.242,0.162,0.428,0.349,0.559,0.562c0.13,0.213,0.21,0.444,0.241,0.692c0.03,0.235,0.025,0.477-0.014,0.728
		c-0.04,0.251-0.109,0.504-0.209,0.758l0.042,0.028c0.154-0.181,0.35-0.368,0.588-0.561C46.332,55.512,46.582,55.366,46.844,55.267z
		 M45.032,55.746c-0.059-0.212-0.155-0.396-0.289-0.553c-0.133-0.157-0.313-0.311-0.539-0.461c-0.377-0.252-0.742-0.347-1.094-0.285
		c-0.352,0.063-0.677,0.316-0.973,0.76c-0.069,0.103-0.153,0.234-0.252,0.394c-0.1,0.159-0.183,0.293-0.251,0.401l2.637,1.763
		l0.41-0.613c0.176-0.264,0.293-0.512,0.352-0.746C45.09,56.172,45.09,55.953,45.032,55.746z M47.653,56.53
		c-0.404-0.27-0.826-0.355-1.268-0.256c-0.441,0.099-0.832,0.401-1.169,0.906c-0.138,0.207-0.252,0.382-0.342,0.527
		c-0.089,0.145-0.157,0.254-0.201,0.327l2.403,1.606c0.202,0.135,0.409,0.155,0.621,0.059c0.212-0.095,0.417-0.29,0.613-0.583
		c0.32-0.479,0.427-0.94,0.318-1.381C48.52,57.293,48.195,56.892,47.653,56.53z"/>
	<path fill="#FFFFFF" d="M49.94,45.988c-0.043,0.05-0.097,0.144-0.161,0.28s-0.101,0.244-0.111,0.32
		c-0.038,0.173-0.057,0.297-0.059,0.371c-0.001,0.074,0.021,0.241,0.067,0.5c0.098,0.514,0.216,1.015,0.354,1.503
		c0.139,0.489,0.318,1.105,0.539,1.85c0.08,0.275,0.158,0.483,0.234,0.622c0.077,0.138,0.219,0.307,0.425,0.507l1.136,1.095
		c0.101,0.097,0.208,0.161,0.32,0.192c0.113,0.031,0.239,0.02,0.378-0.035c0.079-0.037,0.207-0.115,0.384-0.235
		c0.177-0.119,0.312-0.224,0.403-0.313l0.292,0.282l-2.679,2.778l-0.292-0.282c0.07-0.083,0.173-0.211,0.309-0.383
		s0.221-0.3,0.255-0.386c0.055-0.141,0.065-0.266,0.028-0.374c-0.036-0.108-0.107-0.213-0.213-0.315l-1.446-1.395
		c-0.045-0.043-0.153-0.094-0.324-0.155c-0.171-0.06-0.366-0.122-0.584-0.187c-0.486-0.145-1.016-0.297-1.59-0.458
		c-0.574-0.16-1.068-0.293-1.481-0.402c-0.248-0.061-0.447-0.095-0.597-0.103c-0.15-0.007-0.3,0.006-0.45,0.039
		c-0.106,0.027-0.216,0.076-0.329,0.148s-0.208,0.143-0.287,0.213l-0.292-0.282l2.446-2.537l0.292,0.282
		c-0.269,0.29-0.443,0.51-0.522,0.66c-0.079,0.15-0.088,0.254-0.026,0.313c0.017,0.017,0.054,0.037,0.113,0.06
		c0.058,0.024,0.134,0.052,0.228,0.083c0.107,0.034,0.231,0.071,0.373,0.111c0.142,0.04,0.277,0.08,0.406,0.119
		c0.374,0.109,0.75,0.215,1.127,0.317s0.87,0.235,1.477,0.398c-0.284-1.121-0.512-1.988-0.686-2.6
		c-0.173-0.612-0.298-0.956-0.376-1.03c-0.063-0.061-0.137-0.087-0.222-0.077s-0.176,0.043-0.273,0.1
		c-0.1,0.06-0.199,0.134-0.298,0.222c-0.098,0.088-0.19,0.168-0.277,0.241l-0.292-0.282l1.987-2.061L49.94,45.988z"/>
</g>
<g>
	<path fill="#FFFFFF" d="M60.717,40.667c0.219,0.37,0.34,0.74,0.364,1.111s-0.038,0.727-0.185,1.066
		c-0.144,0.337-0.342,0.64-0.595,0.907c-0.253,0.267-0.55,0.502-0.891,0.704l-0.798,0.473l1.279,2.156
		c0.07,0.117,0.15,0.209,0.241,0.274c0.091,0.066,0.211,0.086,0.359,0.062c0.074-0.012,0.194-0.053,0.358-0.124
		c0.165-0.07,0.311-0.142,0.44-0.214l0.207,0.349l-3.037,1.801l-0.208-0.349c0.075-0.054,0.183-0.133,0.324-0.239
		c0.14-0.105,0.232-0.189,0.276-0.251c0.073-0.102,0.107-0.208,0.102-0.318c-0.005-0.11-0.046-0.23-0.123-0.36l-3.042-5.13
		c-0.069-0.117-0.148-0.212-0.237-0.286c-0.088-0.074-0.208-0.098-0.359-0.072c-0.152,0.032-0.295,0.075-0.431,0.13
		c-0.136,0.056-0.25,0.106-0.344,0.153l-0.207-0.35l3.243-1.923c0.661-0.392,1.291-0.551,1.892-0.477
		C59.946,39.836,60.403,40.138,60.717,40.667z M59.913,42.771c0.02-0.227-0.002-0.437-0.067-0.629
		c-0.064-0.192-0.137-0.357-0.217-0.493c-0.112-0.189-0.249-0.368-0.41-0.537c-0.162-0.168-0.341-0.293-0.538-0.374
		c-0.21-0.086-0.436-0.115-0.678-0.088c-0.243,0.027-0.507,0.125-0.792,0.294l-0.71,0.421l1.849,3.118l0.513-0.304
		c0.363-0.215,0.625-0.445,0.785-0.691C59.809,43.244,59.896,43.005,59.913,42.771z"/>
	<path fill="#FFFFFF" d="M71.175,43.236l-2.077,0.79c-0.731-0.543-1.381-1.006-1.949-1.388c-0.568-0.382-1.175-0.769-1.818-1.159
		l-0.808,0.307l0.926,2.436c0.048,0.126,0.11,0.23,0.186,0.311c0.076,0.081,0.189,0.122,0.338,0.123c0.075,0,0.197-0.019,0.368-0.06
		c0.17-0.04,0.313-0.08,0.426-0.118l0.145,0.379l-3.243,1.232l-0.144-0.379c0.083-0.04,0.203-0.1,0.359-0.18
		c0.156-0.08,0.261-0.147,0.314-0.201c0.09-0.088,0.142-0.187,0.156-0.296c0.014-0.109-0.006-0.234-0.06-0.376l-2.123-5.586
		c-0.048-0.127-0.109-0.232-0.182-0.317s-0.186-0.127-0.338-0.127c-0.102,0.002-0.23,0.016-0.384,0.043s-0.282,0.056-0.385,0.087
		l-0.145-0.38l3.556-1.352c0.326-0.124,0.644-0.207,0.956-0.248s0.611-0.032,0.9,0.029c0.279,0.06,0.531,0.182,0.754,0.365
		c0.223,0.183,0.397,0.44,0.522,0.771c0.113,0.298,0.168,0.579,0.165,0.842c-0.004,0.263-0.063,0.512-0.177,0.746
		c-0.104,0.218-0.249,0.428-0.433,0.629s-0.4,0.394-0.645,0.579c0.572,0.358,1.049,0.661,1.432,0.909
		c0.382,0.248,0.851,0.548,1.404,0.901c0.242,0.157,0.447,0.262,0.615,0.316c0.168,0.055,0.329,0.09,0.48,0.107
		c0.112,0.012,0.244,0.003,0.395-0.025s0.274-0.059,0.37-0.091L71.175,43.236z M66.13,38.583c-0.177-0.466-0.452-0.785-0.825-0.955
		c-0.373-0.171-0.804-0.163-1.294,0.023l-0.926,0.352l1.255,3.301l0.714-0.271c0.501-0.191,0.858-0.509,1.071-0.956
		S66.339,39.132,66.13,38.583z"/>
	<path fill="#FFFFFF" d="M76.249,34.869c0.418,0.319,0.771,0.728,1.059,1.227c0.287,0.499,0.481,1.07,0.583,1.714
		c0.103,0.647,0.093,1.252-0.03,1.814c-0.123,0.562-0.338,1.058-0.646,1.488c-0.297,0.424-0.666,0.773-1.104,1.047
		c-0.439,0.274-0.924,0.453-1.456,0.537c-0.566,0.09-1.106,0.066-1.62-0.07c-0.514-0.137-0.973-0.367-1.377-0.692
		c-0.403-0.317-0.745-0.726-1.026-1.226c-0.281-0.5-0.469-1.052-0.565-1.658c-0.105-0.663-0.095-1.271,0.029-1.823
		c0.124-0.552,0.338-1.047,0.641-1.484c0.3-0.433,0.672-0.786,1.117-1.061c0.444-0.274,0.927-0.454,1.447-0.536
		c0.54-0.085,1.064-0.064,1.574,0.063C75.383,34.336,75.842,34.556,76.249,34.869z M76.31,40.791
		c0.159-0.383,0.252-0.803,0.28-1.259c0.027-0.457-0.001-0.957-0.088-1.501c-0.089-0.56-0.225-1.065-0.408-1.516
		s-0.406-0.824-0.668-1.121c-0.262-0.292-0.566-0.504-0.912-0.637c-0.347-0.132-0.724-0.166-1.133-0.101
		c-0.459,0.073-0.832,0.24-1.12,0.502c-0.288,0.262-0.505,0.585-0.651,0.97c-0.138,0.368-0.218,0.785-0.24,1.252
		c-0.022,0.468,0.007,0.951,0.086,1.449c0.087,0.552,0.216,1.043,0.386,1.472c0.17,0.429,0.389,0.799,0.658,1.111
		c0.26,0.305,0.562,0.527,0.905,0.667c0.344,0.14,0.733,0.176,1.169,0.106c0.409-0.064,0.763-0.219,1.062-0.463
		C75.933,41.479,76.158,41.168,76.31,40.791z"/>
	<path fill="#FFFFFF" d="M87.059,39.002c-0.096,0.007-0.223,0.019-0.384,0.036s-0.292,0.046-0.393,0.087
		c-0.121,0.052-0.209,0.13-0.265,0.235c-0.055,0.104-0.085,0.228-0.092,0.372l-0.034,0.641c-0.024,0.466-0.038,0.781-0.04,0.944
		c-0.004,0.164-0.004,0.298-0.001,0.403c-0.526,0.207-1.048,0.358-1.565,0.456c-0.517,0.098-1.021,0.134-1.512,0.108
		c-0.525-0.027-1.027-0.153-1.504-0.376c-0.477-0.223-0.888-0.527-1.232-0.911c-0.348-0.387-0.617-0.851-0.806-1.389
		c-0.189-0.539-0.267-1.134-0.232-1.786c0.033-0.628,0.167-1.206,0.401-1.732c0.235-0.526,0.552-0.977,0.951-1.353
		c0.387-0.369,0.84-0.648,1.36-0.836c0.519-0.189,1.068-0.268,1.648-0.238c0.464,0.024,0.864,0.103,1.202,0.235
		c0.338,0.132,0.634,0.285,0.889,0.457l0.258-0.382l0.469,0.024l-0.104,2.889l-0.484-0.025c-0.064-0.325-0.148-0.646-0.252-0.962
		s-0.243-0.603-0.42-0.859c-0.176-0.256-0.396-0.464-0.66-0.625c-0.265-0.161-0.586-0.251-0.965-0.271
		c-0.412-0.021-0.785,0.044-1.119,0.196c-0.332,0.152-0.627,0.389-0.885,0.711c-0.252,0.31-0.454,0.703-0.607,1.178
		c-0.152,0.475-0.244,1.01-0.275,1.604c-0.027,0.525,0.01,1.022,0.111,1.493c0.102,0.471,0.264,0.882,0.487,1.232
		c0.222,0.358,0.508,0.646,0.857,0.863s0.754,0.337,1.211,0.361c0.342,0.018,0.655-0.019,0.941-0.109
		c0.287-0.09,0.491-0.191,0.613-0.301c0.041-0.201,0.068-0.404,0.082-0.61c0.012-0.206,0.022-0.381,0.029-0.525l0.024-0.455
		c0.009-0.164-0.007-0.31-0.044-0.438c-0.038-0.129-0.125-0.226-0.261-0.292c-0.124-0.065-0.295-0.118-0.512-0.158
		s-0.388-0.068-0.51-0.083l0.021-0.406l3.621,0.189L87.059,39.002z"/>
	<path fill="#FFFFFF" d="M94.605,44.389l-2.15-0.563c-0.279-0.866-0.541-1.62-0.781-2.261c-0.242-0.641-0.512-1.308-0.81-1.999
		l-0.835-0.219l-0.66,2.521c-0.034,0.131-0.043,0.251-0.028,0.36c0.015,0.11,0.083,0.208,0.204,0.296
		c0.061,0.044,0.172,0.099,0.334,0.165c0.162,0.066,0.301,0.117,0.415,0.151l-0.103,0.393l-3.355-0.877l0.102-0.393
		c0.092,0.016,0.225,0.037,0.398,0.062s0.298,0.032,0.373,0.019c0.123-0.02,0.223-0.07,0.297-0.151
		c0.075-0.081,0.132-0.194,0.17-0.341l1.513-5.781c0.034-0.131,0.046-0.253,0.036-0.364c-0.012-0.111-0.078-0.211-0.202-0.3
		c-0.084-0.058-0.196-0.12-0.338-0.188c-0.142-0.067-0.263-0.118-0.364-0.152l0.103-0.393l3.681,0.962
		c0.337,0.088,0.645,0.206,0.922,0.353c0.277,0.146,0.517,0.329,0.717,0.545c0.192,0.211,0.326,0.456,0.402,0.734
		c0.074,0.279,0.067,0.589-0.021,0.931c-0.082,0.309-0.199,0.569-0.355,0.781c-0.155,0.212-0.348,0.381-0.577,0.505
		c-0.211,0.118-0.45,0.205-0.718,0.261c-0.267,0.057-0.554,0.089-0.86,0.097c0.258,0.624,0.471,1.147,0.638,1.571
		c0.168,0.424,0.375,0.94,0.621,1.548c0.106,0.268,0.213,0.473,0.318,0.615c0.104,0.142,0.215,0.264,0.328,0.366
		c0.084,0.074,0.197,0.144,0.336,0.208c0.14,0.064,0.258,0.111,0.354,0.141L94.605,44.389z M93.197,37.671
		c0.125-0.482,0.086-0.901-0.117-1.256c-0.205-0.355-0.561-0.599-1.068-0.731l-0.959-0.251l-0.894,3.417l0.739,0.193
		c0.518,0.136,0.994,0.083,1.426-0.157C92.758,38.645,93.048,38.24,93.197,37.671z"/>
	<path fill="#FFFFFF" d="M101.459,47.875l-3.082-1.515l0.18-0.364c0.279,0.116,0.521,0.191,0.727,0.227s0.326,0.015,0.364-0.062
		c0.015-0.031,0.03-0.071,0.046-0.121c0.016-0.049,0.025-0.094,0.028-0.136l0.203-1.97l-2.583-1.27
		c-0.219,0.196-0.403,0.371-0.554,0.522c-0.151,0.152-0.288,0.292-0.413,0.422c-0.119,0.128-0.211,0.235-0.275,0.32
		c-0.063,0.086-0.109,0.159-0.139,0.218c-0.068,0.14-0.013,0.302,0.169,0.486c0.181,0.185,0.406,0.352,0.675,0.5l-0.18,0.365
		l-2.795-1.374l0.18-0.365c0.094,0.038,0.217,0.073,0.368,0.107s0.285,0.044,0.399,0.031c0.186-0.025,0.342-0.071,0.469-0.136
		s0.271-0.17,0.434-0.315c0.828-0.746,1.752-1.587,2.77-2.525c1.018-0.938,1.925-1.772,2.721-2.504l0.418,0.205l-0.671,7.599
		c-0.015,0.162-0.01,0.3,0.016,0.416c0.024,0.116,0.077,0.243,0.156,0.381c0.056,0.088,0.14,0.18,0.253,0.276
		c0.112,0.096,0.211,0.167,0.297,0.214L101.459,47.875z M99.962,43.379l0.288-3.401l-2.5,2.313L99.962,43.379z"/>
	<path fill="#FFFFFF" d="M109.103,54.132l-2.812-2.338l0.26-0.313c0.104,0.081,0.242,0.179,0.416,0.293s0.305,0.18,0.392,0.197
		c0.139,0.02,0.261,0.011,0.364-0.026c0.104-0.037,0.202-0.111,0.294-0.221l3.84-4.618l-0.067-0.056l-6.655,3.599l-0.224-0.186
		l2.52-7.226l-0.058-0.049l-3.151,3.79c-0.305,0.367-0.514,0.665-0.627,0.895c-0.112,0.229-0.155,0.426-0.129,0.589
		c0.014,0.117,0.1,0.29,0.259,0.518c0.159,0.228,0.269,0.37,0.329,0.425l-0.26,0.312l-2.56-2.128l0.26-0.312
		c0.144,0.099,0.302,0.193,0.477,0.283s0.329,0.134,0.464,0.135c0.174,0.003,0.352-0.066,0.533-0.207
		c0.184-0.141,0.443-0.415,0.781-0.821l2.703-3.251c0.156-0.188,0.262-0.361,0.316-0.517c0.055-0.157,0.071-0.307,0.051-0.451
		c-0.025-0.157-0.09-0.312-0.191-0.461c-0.102-0.15-0.217-0.283-0.342-0.398l0.26-0.312l2.161,1.797l-2.155,6.275l4.881-2.692
		c0.178-0.099,0.354-0.211,0.526-0.337s0.284-0.215,0.331-0.266l2.076,1.727l-0.26,0.313c-0.086-0.067-0.204-0.142-0.354-0.227
		c-0.15-0.084-0.264-0.14-0.34-0.169c-0.133-0.049-0.25-0.046-0.355,0.007s-0.199,0.13-0.281,0.229l-3.81,4.581
		c-0.087,0.105-0.143,0.208-0.166,0.309c-0.023,0.102-0.007,0.222,0.051,0.36c0.028,0.075,0.103,0.182,0.219,0.322
		c0.116,0.14,0.214,0.245,0.293,0.315L109.103,54.132z"/>
	<path fill="#FFFFFF" d="M114.955,62.405l-2.106-2.988l0.332-0.234c0.079,0.105,0.187,0.236,0.325,0.391
		c0.139,0.156,0.247,0.253,0.326,0.292c0.129,0.055,0.249,0.079,0.359,0.069c0.109-0.009,0.224-0.055,0.341-0.137l4.909-3.461
		l-0.051-0.071l-7.362,1.745l-0.167-0.238l4.311-6.323l-0.043-0.062l-4.028,2.84c-0.39,0.275-0.669,0.509-0.837,0.701
		c-0.169,0.192-0.262,0.371-0.278,0.535c-0.018,0.117,0.021,0.306,0.115,0.568c0.095,0.261,0.163,0.427,0.207,0.496l-0.332,0.234
		l-1.918-2.72l0.332-0.234c0.112,0.133,0.241,0.266,0.387,0.397c0.146,0.132,0.282,0.215,0.413,0.251
		c0.166,0.048,0.355,0.027,0.568-0.062c0.213-0.088,0.535-0.285,0.968-0.589l3.456-2.437c0.199-0.141,0.346-0.28,0.439-0.417
		c0.094-0.137,0.148-0.278,0.165-0.422c0.017-0.159-0.005-0.324-0.063-0.495c-0.061-0.172-0.136-0.33-0.228-0.474l0.332-0.234
		l1.62,2.298l-3.712,5.499l5.411-1.331c0.198-0.049,0.397-0.112,0.598-0.189c0.199-0.077,0.33-0.134,0.389-0.17l1.557,2.207
		l-0.332,0.234c-0.066-0.087-0.161-0.19-0.283-0.311c-0.123-0.12-0.219-0.204-0.285-0.252c-0.114-0.082-0.229-0.11-0.346-0.085
		c-0.115,0.025-0.225,0.074-0.33,0.148l-4.869,3.433c-0.111,0.079-0.191,0.164-0.24,0.255c-0.05,0.092-0.064,0.212-0.045,0.361
		c0.008,0.08,0.051,0.202,0.127,0.368s0.145,0.292,0.201,0.381L114.955,62.405z"/>
	<path fill="#FFFFFF" d="M119.826,68.193l-2.312,0.789l-2.63-6.334l0.376-0.156c0.052,0.104,0.126,0.241,0.224,0.41
		s0.17,0.275,0.217,0.318c0.102,0.092,0.205,0.143,0.309,0.151c0.105,0.009,0.224-0.014,0.356-0.069l5.487-2.277
		c0.117-0.049,0.215-0.112,0.289-0.189c0.076-0.077,0.116-0.19,0.121-0.339c0.007-0.116-0.006-0.263-0.037-0.44
		s-0.063-0.316-0.097-0.416l0.376-0.156l2.449,5.903l-1.833,0.76l-0.167-0.404c0.236-0.183,0.455-0.456,0.656-0.819
		c0.201-0.363,0.271-0.659,0.21-0.886c-0.032-0.118-0.077-0.255-0.134-0.412s-0.127-0.334-0.209-0.532l-0.498-1.202l-3.002,1.246
		l0.358,0.863c0.115,0.277,0.226,0.469,0.329,0.575c0.105,0.106,0.238,0.183,0.4,0.23c0.136,0.036,0.303,0.046,0.498,0.03
		c0.196-0.016,0.375-0.047,0.535-0.093l0.168,0.404l-2.986,1.24l-0.168-0.404c0.165-0.086,0.33-0.2,0.496-0.342
		c0.165-0.143,0.276-0.266,0.334-0.37c0.094-0.17,0.132-0.334,0.115-0.495c-0.016-0.16-0.072-0.356-0.169-0.59l-0.358-0.864
		l-2.276,0.945c-0.229,0.095-0.401,0.186-0.521,0.272c-0.118,0.086-0.191,0.191-0.221,0.312s-0.02,0.266,0.027,0.436
		c0.047,0.169,0.133,0.402,0.256,0.699c0.049,0.118,0.113,0.274,0.193,0.467c0.08,0.193,0.154,0.353,0.225,0.479
		c0.07,0.13,0.154,0.259,0.252,0.389s0.191,0.211,0.281,0.245c0.24,0.093,0.572,0.158,0.996,0.194
		c0.424,0.036,0.729,0.044,0.914,0.026L119.826,68.193z"/>
	<path fill="#FFFFFF" d="M119.254,77.301l-0.439-2.178c0.655-0.633,1.218-1.198,1.688-1.697s0.949-1.033,1.439-1.605l-0.17-0.847
		l-2.555,0.516c-0.133,0.027-0.245,0.071-0.337,0.133s-0.15,0.166-0.176,0.313c-0.013,0.074-0.014,0.197-0.002,0.373
		c0.012,0.175,0.028,0.321,0.048,0.439l-0.398,0.08l-0.687-3.4l0.397-0.081c0.026,0.089,0.066,0.217,0.119,0.384
		c0.055,0.167,0.104,0.282,0.147,0.343c0.071,0.103,0.161,0.17,0.267,0.202c0.105,0.031,0.232,0.032,0.381,0.002l5.857-1.183
		c0.133-0.027,0.247-0.07,0.342-0.128c0.096-0.059,0.156-0.163,0.182-0.313c0.014-0.101,0.021-0.229,0.02-0.386
		c-0.002-0.157-0.01-0.288-0.023-0.395l0.398-0.08l0.753,3.729c0.069,0.341,0.099,0.669,0.089,0.983
		c-0.01,0.314-0.068,0.608-0.176,0.883c-0.105,0.266-0.266,0.494-0.483,0.684c-0.217,0.19-0.499,0.32-0.845,0.39
		c-0.313,0.063-0.6,0.071-0.857,0.024c-0.26-0.046-0.495-0.146-0.708-0.296c-0.198-0.138-0.382-0.314-0.55-0.53
		c-0.168-0.215-0.324-0.458-0.466-0.73c-0.446,0.506-0.823,0.927-1.131,1.264s-0.68,0.75-1.118,1.238
		c-0.193,0.213-0.331,0.398-0.412,0.555c-0.082,0.157-0.143,0.309-0.185,0.456c-0.03,0.109-0.043,0.24-0.04,0.394
		c0.004,0.154,0.014,0.28,0.029,0.38L119.254,77.301z M124.669,73.083c0.489-0.099,0.848-0.318,1.077-0.658
		c0.229-0.339,0.291-0.767,0.188-1.281l-0.195-0.971l-3.462,0.699l0.151,0.749c0.105,0.525,0.361,0.93,0.768,1.212
		C123.602,73.116,124.093,73.199,124.669,73.083z"/>
</g>
<g>
	<path d="M43.333,68.618L42.915,70.8c-0.846,0.337-1.581,0.647-2.204,0.931s-1.271,0.597-1.94,0.94l-0.163,0.848l2.559,0.49
		c0.133,0.025,0.253,0.027,0.362,0.004c0.109-0.022,0.203-0.097,0.282-0.223c0.04-0.063,0.087-0.177,0.143-0.344
		c0.056-0.167,0.096-0.308,0.123-0.425l0.399,0.077l-0.653,3.407l-0.399-0.077c0.01-0.092,0.021-0.225,0.035-0.4
		c0.014-0.175,0.012-0.299-0.005-0.373c-0.028-0.123-0.084-0.218-0.17-0.288c-0.086-0.069-0.203-0.118-0.352-0.146l-5.869-1.125
		c-0.133-0.025-0.255-0.029-0.366-0.011c-0.11,0.018-0.205,0.092-0.285,0.221c-0.052,0.088-0.107,0.204-0.165,0.35
		s-0.101,0.27-0.128,0.374l-0.399-0.077l0.716-3.736c0.066-0.342,0.163-0.656,0.291-0.943c0.128-0.287,0.293-0.537,0.497-0.75
		c0.198-0.207,0.434-0.357,0.707-0.45s0.583-0.107,0.93-0.041c0.313,0.06,0.581,0.161,0.803,0.302
		c0.222,0.141,0.403,0.322,0.542,0.542c0.131,0.203,0.234,0.436,0.308,0.699c0.074,0.263,0.125,0.547,0.154,0.853
		c0.605-0.299,1.113-0.546,1.525-0.742c0.412-0.195,0.913-0.437,1.504-0.722c0.26-0.124,0.458-0.243,0.592-0.358
		c0.135-0.114,0.249-0.232,0.343-0.352c0.068-0.089,0.13-0.206,0.186-0.349s0.094-0.265,0.117-0.363L43.333,68.618z M36.725,70.47
		c-0.49-0.094-0.905-0.027-1.246,0.2s-0.561,0.599-0.659,1.114l-0.187,0.973l3.468,0.665l0.144-0.75
		c0.101-0.526,0.017-0.998-0.252-1.413C37.725,70.843,37.302,70.58,36.725,70.47z"/>
	<path d="M39.157,58.479c-0.039,0.102-0.078,0.259-0.119,0.47c-0.041,0.21-0.047,0.393-0.019,0.548
		c0.032,0.157,0.167,0.312,0.406,0.465c0.239,0.154,0.545,0.308,0.918,0.462l3.32,1.374c0.423,0.175,0.755,0.415,0.994,0.719
		c0.24,0.304,0.401,0.641,0.483,1.009c0.077,0.362,0.093,0.717,0.048,1.064c-0.045,0.348-0.126,0.664-0.245,0.95
		c-0.189,0.457-0.418,0.839-0.686,1.147c-0.268,0.307-0.555,0.54-0.859,0.698c-0.303,0.155-0.612,0.238-0.926,0.25
		c-0.313,0.013-0.614-0.041-0.901-0.16l-4.514-1.868c-0.125-0.052-0.239-0.074-0.34-0.067s-0.215,0.059-0.339,0.156
		c-0.087,0.07-0.176,0.169-0.265,0.298c-0.089,0.128-0.156,0.236-0.201,0.324l-0.375-0.156l1.309-3.162l0.375,0.155
		c-0.037,0.101-0.073,0.232-0.106,0.395s-0.053,0.285-0.057,0.366c-0.007,0.139,0.032,0.249,0.115,0.331
		c0.083,0.083,0.185,0.148,0.303,0.197l4.215,1.745c0.205,0.084,0.428,0.151,0.671,0.199c0.242,0.048,0.488,0.045,0.736-0.008
		c0.255-0.058,0.496-0.182,0.721-0.371c0.225-0.188,0.424-0.493,0.598-0.914c0.163-0.395,0.238-0.752,0.223-1.071
		c-0.015-0.32-0.092-0.599-0.233-0.838c-0.133-0.227-0.292-0.415-0.478-0.564c-0.187-0.148-0.387-0.267-0.603-0.356l-3.129-1.295
		c-0.398-0.165-0.735-0.271-1.011-0.318c-0.276-0.047-0.477-0.032-0.602,0.045c-0.141,0.088-0.282,0.229-0.421,0.424
		c-0.14,0.195-0.236,0.348-0.291,0.459l-0.375-0.155l1.285-3.104L39.157,58.479z"/>
	<path d="M46.288,54.921c0.268-0.111,0.556-0.161,0.863-0.149c0.308,0.012,0.619,0.122,0.933,0.328
		c0.321,0.211,0.553,0.463,0.698,0.758c0.145,0.295,0.22,0.604,0.225,0.927c0.006,0.315-0.041,0.635-0.144,0.959
		c-0.102,0.325-0.249,0.633-0.44,0.925l-2.145,3.265l-0.339-0.223c0.044-0.083,0.105-0.205,0.183-0.368
		c0.077-0.164,0.123-0.287,0.136-0.372c0.021-0.13,0.007-0.242-0.042-0.334c-0.048-0.092-0.132-0.178-0.252-0.257l-4.965-3.262
		c-0.11-0.073-0.22-0.118-0.329-0.136c-0.109-0.018-0.226,0.012-0.352,0.089c-0.113,0.066-0.223,0.152-0.328,0.256
		c-0.105,0.104-0.188,0.195-0.249,0.272l-0.34-0.223l2.094-3.188c0.162-0.246,0.341-0.466,0.538-0.66s0.424-0.352,0.681-0.476
		c0.239-0.117,0.497-0.173,0.772-0.168c0.276,0.004,0.553,0.098,0.832,0.281c0.243,0.16,0.431,0.346,0.563,0.558
		s0.214,0.442,0.246,0.69c0.032,0.234,0.029,0.477-0.008,0.728c-0.037,0.251-0.105,0.505-0.204,0.76l0.043,0.028
		c0.153-0.183,0.347-0.371,0.584-0.565C45.777,55.17,46.026,55.022,46.288,54.921z M44.479,55.415
		c-0.061-0.211-0.159-0.395-0.293-0.55c-0.134-0.155-0.315-0.308-0.542-0.457c-0.379-0.249-0.745-0.341-1.097-0.276
		c-0.352,0.065-0.674,0.321-0.967,0.768c-0.068,0.104-0.151,0.235-0.249,0.395c-0.098,0.16-0.181,0.295-0.248,0.403l2.651,1.742
		l0.405-0.616c0.174-0.265,0.289-0.514,0.346-0.749C44.541,55.84,44.539,55.621,44.479,55.415z M47.106,56.178
		c-0.406-0.267-0.829-0.349-1.27-0.247c-0.441,0.103-0.829,0.408-1.163,0.916c-0.136,0.207-0.249,0.384-0.337,0.529
		c-0.088,0.146-0.155,0.255-0.198,0.329l2.416,1.587c0.203,0.133,0.41,0.151,0.622,0.054c0.211-0.097,0.414-0.293,0.608-0.588
		c0.317-0.482,0.419-0.943,0.307-1.384C47.979,56.934,47.651,56.536,47.106,56.178z"/>
	<path d="M49.256,45.626c-0.042,0.051-0.094,0.145-0.157,0.282c-0.063,0.138-0.098,0.245-0.107,0.322
		c-0.035,0.174-0.053,0.298-0.054,0.372c0,0.074,0.024,0.241,0.074,0.5c0.104,0.513,0.229,1.012,0.374,1.499
		c0.145,0.486,0.332,1.101,0.562,1.843c0.083,0.274,0.164,0.481,0.243,0.618c0.078,0.138,0.222,0.305,0.432,0.501l1.15,1.081
		c0.102,0.096,0.21,0.158,0.323,0.188c0.113,0.03,0.239,0.017,0.377-0.04c0.078-0.038,0.206-0.118,0.381-0.24
		c0.176-0.122,0.309-0.228,0.399-0.318l0.296,0.278l-2.643,2.812l-0.296-0.278c0.069-0.084,0.17-0.213,0.304-0.387
		s0.217-0.303,0.25-0.39c0.053-0.142,0.062-0.266,0.023-0.374c-0.037-0.107-0.11-0.212-0.217-0.313l-1.464-1.376
		c-0.045-0.042-0.154-0.093-0.326-0.15c-0.172-0.058-0.368-0.118-0.587-0.18c-0.487-0.139-1.019-0.285-1.595-0.437
		c-0.576-0.153-1.071-0.28-1.486-0.383c-0.249-0.058-0.449-0.09-0.599-0.095c-0.15-0.005-0.3,0.01-0.45,0.045
		c-0.106,0.028-0.215,0.079-0.327,0.152c-0.111,0.073-0.206,0.146-0.284,0.216l-0.296-0.278l2.413-2.568l0.296,0.278
		c-0.265,0.294-0.437,0.516-0.514,0.667c-0.077,0.151-0.084,0.255-0.022,0.314c0.017,0.016,0.055,0.036,0.114,0.059
		c0.059,0.023,0.135,0.05,0.229,0.08c0.107,0.033,0.232,0.068,0.375,0.107c0.142,0.038,0.278,0.076,0.408,0.113
		c0.375,0.104,0.752,0.205,1.131,0.302c0.379,0.098,0.873,0.224,1.482,0.379c-0.298-1.117-0.538-1.981-0.719-2.591
		s-0.311-0.952-0.389-1.025c-0.064-0.06-0.138-0.085-0.223-0.074s-0.175,0.046-0.272,0.104c-0.099,0.061-0.197,0.136-0.294,0.226
		c-0.097,0.089-0.188,0.171-0.274,0.245L47,47.434l1.96-2.086L49.256,45.626z"/>
	<path d="M59.635,40.458c0.226,0.366,0.354,0.734,0.383,1.104c0.03,0.371-0.025,0.728-0.167,1.069
		c-0.138,0.339-0.331,0.646-0.579,0.917c-0.249,0.271-0.542,0.512-0.879,0.72l-0.789,0.487l1.317,2.133
		c0.071,0.116,0.153,0.206,0.246,0.27c0.092,0.064,0.212,0.083,0.36,0.055c0.074-0.013,0.192-0.057,0.355-0.13
		s0.309-0.147,0.437-0.222l0.213,0.346l-3.005,1.854l-0.213-0.346c0.074-0.055,0.181-0.136,0.319-0.245
		c0.139-0.108,0.229-0.193,0.271-0.256c0.071-0.103,0.104-0.21,0.097-0.32s-0.05-0.229-0.129-0.358l-3.132-5.075
		c-0.071-0.116-0.152-0.209-0.242-0.282c-0.09-0.072-0.21-0.094-0.36-0.065c-0.151,0.034-0.294,0.08-0.428,0.138
		c-0.135,0.058-0.248,0.111-0.341,0.159l-0.213-0.346l3.208-1.98c0.653-0.403,1.281-0.573,1.883-0.51
		C58.849,39.641,59.312,39.935,59.635,40.458z M58.868,42.576c0.016-0.227-0.01-0.436-0.078-0.628
		c-0.067-0.191-0.143-0.354-0.226-0.489c-0.116-0.187-0.255-0.363-0.42-0.529c-0.164-0.166-0.346-0.287-0.544-0.364
		c-0.211-0.083-0.438-0.108-0.68-0.076c-0.242,0.032-0.504,0.135-0.787,0.309l-0.703,0.433l1.904,3.085l0.508-0.313
		c0.358-0.222,0.616-0.456,0.773-0.705C58.772,43.051,58.856,42.81,58.868,42.576z"/>
	<path d="M70.239,42.814l-2.065,0.82c-0.739-0.532-1.396-0.985-1.969-1.359c-0.574-0.374-1.186-0.75-1.835-1.132l-0.803,0.319
		l0.961,2.422c0.05,0.126,0.113,0.229,0.19,0.308c0.078,0.08,0.19,0.119,0.34,0.118c0.074,0,0.196-0.021,0.367-0.064
		c0.17-0.042,0.311-0.084,0.424-0.125l0.15,0.378l-3.224,1.28l-0.15-0.377c0.083-0.042,0.202-0.103,0.357-0.186
		s0.259-0.151,0.312-0.206c0.088-0.089,0.139-0.188,0.151-0.298s-0.009-0.234-0.065-0.375l-2.205-5.554
		c-0.05-0.126-0.113-0.231-0.187-0.314c-0.075-0.083-0.188-0.124-0.339-0.122c-0.102,0.003-0.23,0.02-0.383,0.049
		c-0.153,0.03-0.282,0.061-0.384,0.093l-0.15-0.377l3.536-1.404c0.324-0.128,0.641-0.215,0.952-0.262
		c0.311-0.046,0.611-0.041,0.9,0.016c0.28,0.056,0.534,0.174,0.759,0.354c0.225,0.18,0.403,0.434,0.534,0.763
		c0.118,0.296,0.177,0.576,0.177,0.839c0,0.263-0.055,0.513-0.166,0.749c-0.101,0.22-0.242,0.431-0.424,0.635
		s-0.394,0.4-0.636,0.588c0.577,0.35,1.059,0.646,1.445,0.888c0.386,0.242,0.859,0.536,1.417,0.88
		c0.244,0.153,0.451,0.255,0.62,0.307c0.169,0.052,0.33,0.086,0.481,0.101c0.112,0.01,0.244,0,0.395-0.031
		c0.151-0.031,0.273-0.063,0.369-0.096L70.239,42.814z M65.126,38.235c-0.184-0.463-0.463-0.778-0.838-0.943
		s-0.807-0.151-1.294,0.042l-0.921,0.366l1.303,3.282l0.71-0.282c0.498-0.198,0.851-0.521,1.057-0.971
		C65.348,39.279,65.343,38.781,65.126,38.235z"/>
	<path d="M75.232,34.663c0.423,0.313,0.782,0.716,1.076,1.211c0.293,0.495,0.496,1.063,0.607,1.706
		c0.112,0.646,0.11,1.251-0.004,1.814c-0.115,0.563-0.323,1.063-0.625,1.497c-0.291,0.429-0.654,0.783-1.089,1.063
		c-0.435,0.28-0.918,0.466-1.448,0.558c-0.564,0.098-1.105,0.082-1.62-0.048c-0.516-0.129-0.978-0.354-1.387-0.673
		c-0.408-0.312-0.755-0.715-1.043-1.21c-0.288-0.496-0.484-1.046-0.589-1.65c-0.114-0.662-0.113-1.27,0.003-1.823
		s0.323-1.051,0.62-1.493c0.294-0.437,0.661-0.795,1.102-1.077c0.44-0.281,0.92-0.466,1.439-0.556
		c0.538-0.093,1.063-0.079,1.575,0.041C74.36,34.143,74.821,34.356,75.232,34.663z M75.377,40.583
		c0.153-0.385,0.24-0.806,0.262-1.263c0.021-0.457-0.015-0.957-0.109-1.5c-0.097-0.559-0.24-1.062-0.429-1.51
		s-0.417-0.818-0.684-1.111c-0.266-0.289-0.573-0.497-0.921-0.624c-0.348-0.127-0.726-0.155-1.134-0.084
		c-0.458,0.079-0.829,0.251-1.113,0.518c-0.284,0.266-0.497,0.592-0.638,0.979c-0.132,0.37-0.207,0.788-0.222,1.256
		s0.02,0.95,0.106,1.448c0.096,0.551,0.231,1.04,0.407,1.467c0.176,0.427,0.401,0.793,0.674,1.101
		c0.264,0.301,0.569,0.52,0.915,0.654c0.346,0.136,0.736,0.166,1.17,0.09c0.408-0.07,0.76-0.229,1.055-0.478
		C75.01,41.277,75.231,40.963,75.377,40.583z"/>
	<path d="M86.239,38.645c-0.095,0.008-0.223,0.022-0.384,0.041c-0.16,0.02-0.291,0.05-0.391,0.093
		c-0.121,0.054-0.207,0.133-0.261,0.238s-0.083,0.229-0.089,0.373l-0.024,0.641c-0.019,0.467-0.028,0.781-0.028,0.945
		s0.002,0.298,0.005,0.403c-0.523,0.213-1.043,0.372-1.559,0.477c-0.516,0.104-1.019,0.147-1.511,0.128
		c-0.525-0.021-1.029-0.139-1.508-0.356c-0.48-0.217-0.895-0.515-1.244-0.894c-0.353-0.383-0.628-0.842-0.824-1.379
		c-0.196-0.536-0.281-1.13-0.256-1.782c0.024-0.629,0.15-1.208,0.378-1.738c0.228-0.529,0.539-0.985,0.933-1.366
		c0.382-0.374,0.832-0.659,1.349-0.854c0.517-0.195,1.065-0.282,1.645-0.26c0.464,0.018,0.866,0.091,1.205,0.219
		c0.34,0.128,0.638,0.277,0.895,0.445l0.253-0.386l0.469,0.018l-0.064,2.891l-0.484-0.019c-0.068-0.324-0.157-0.643-0.265-0.958
		c-0.108-0.315-0.251-0.6-0.431-0.854s-0.403-0.459-0.67-0.616s-0.589-0.243-0.968-0.258c-0.413-0.016-0.785,0.054-1.116,0.211
		s-0.623,0.397-0.875,0.723c-0.248,0.313-0.445,0.709-0.591,1.186c-0.146,0.478-0.231,1.014-0.254,1.608
		c-0.021,0.525,0.023,1.022,0.131,1.491c0.108,0.47,0.276,0.878,0.503,1.226c0.227,0.355,0.517,0.639,0.87,0.852
		c0.353,0.212,0.759,0.327,1.216,0.345c0.342,0.013,0.654-0.027,0.939-0.122s0.488-0.197,0.609-0.31
		c0.039-0.201,0.063-0.404,0.073-0.611c0.01-0.206,0.018-0.381,0.023-0.525l0.018-0.456c0.007-0.163-0.011-0.309-0.05-0.437
		c-0.04-0.128-0.128-0.224-0.265-0.288c-0.126-0.063-0.297-0.113-0.515-0.151c-0.217-0.038-0.387-0.063-0.51-0.075l0.016-0.406
		l3.622,0.141L86.239,38.645z"/>
	<path d="M93.877,43.922l-2.158-0.532c-0.293-0.862-0.564-1.612-0.814-2.25c-0.25-0.637-0.529-1.3-0.837-1.987l-0.839-0.207
		l-0.623,2.53c-0.033,0.131-0.041,0.251-0.023,0.361c0.017,0.11,0.086,0.208,0.208,0.293c0.061,0.043,0.173,0.097,0.336,0.161
		s0.302,0.112,0.417,0.145l-0.097,0.395L86.078,42l0.098-0.395c0.091,0.014,0.224,0.033,0.398,0.056
		c0.174,0.023,0.298,0.028,0.373,0.014c0.123-0.021,0.223-0.073,0.295-0.155c0.074-0.082,0.129-0.196,0.166-0.343l1.43-5.802
		c0.032-0.132,0.042-0.253,0.03-0.364c-0.013-0.111-0.081-0.21-0.206-0.296c-0.084-0.057-0.198-0.118-0.34-0.183
		c-0.143-0.065-0.265-0.114-0.367-0.147l0.098-0.394l3.693,0.91c0.338,0.083,0.647,0.197,0.928,0.34
		c0.279,0.143,0.521,0.321,0.723,0.535c0.196,0.208,0.334,0.451,0.413,0.729c0.079,0.277,0.076,0.587-0.009,0.931
		c-0.076,0.31-0.19,0.572-0.343,0.786c-0.153,0.214-0.343,0.385-0.57,0.514c-0.209,0.12-0.447,0.21-0.714,0.271
		c-0.266,0.061-0.553,0.097-0.859,0.109c0.268,0.62,0.487,1.141,0.661,1.562c0.173,0.421,0.388,0.935,0.643,1.54
		c0.11,0.267,0.219,0.47,0.326,0.61c0.106,0.141,0.218,0.261,0.333,0.361c0.086,0.073,0.199,0.141,0.34,0.204
		s0.26,0.107,0.356,0.136L93.877,43.922z M92.373,37.226c0.119-0.484,0.074-0.902-0.136-1.254s-0.569-0.591-1.078-0.717
		l-0.962-0.237l-0.846,3.429l0.742,0.183c0.521,0.128,0.995,0.069,1.424-0.178C91.947,38.205,92.232,37.796,92.373,37.226z"/>
	<path d="M100.973,47.461l-3.089-1.5l0.177-0.365c0.281,0.114,0.523,0.189,0.729,0.224s0.326,0.014,0.364-0.063
		c0.015-0.032,0.03-0.072,0.046-0.121c0.015-0.049,0.023-0.094,0.027-0.136l0.193-1.971l-2.589-1.257
		c-0.218,0.198-0.401,0.373-0.552,0.525c-0.149,0.152-0.286,0.293-0.41,0.423c-0.119,0.128-0.21,0.236-0.273,0.322
		c-0.063,0.086-0.109,0.159-0.139,0.219c-0.068,0.14-0.011,0.302,0.172,0.486c0.182,0.184,0.407,0.349,0.676,0.497l-0.178,0.366
		l-2.801-1.36l0.178-0.366c0.094,0.037,0.217,0.072,0.369,0.105c0.152,0.033,0.285,0.043,0.4,0.029
		c0.184-0.026,0.34-0.072,0.467-0.138c0.127-0.066,0.271-0.171,0.432-0.317c0.825-0.75,1.744-1.596,2.758-2.538
		s1.917-1.782,2.71-2.517l0.418,0.203l-0.635,7.603c-0.014,0.162-0.008,0.3,0.018,0.416c0.026,0.116,0.079,0.243,0.158,0.38
		c0.056,0.088,0.141,0.18,0.254,0.275c0.112,0.096,0.212,0.167,0.298,0.212L100.973,47.461z M99.455,42.972l0.271-3.402
		l-2.489,2.325L99.455,42.972z"/>
	<path d="M108.642,53.679l-2.823-2.323l0.258-0.313c0.104,0.081,0.242,0.177,0.418,0.291c0.174,0.114,0.305,0.179,0.392,0.195
		c0.14,0.019,0.261,0.01,0.364-0.028c0.104-0.038,0.201-0.112,0.293-0.223l3.815-4.638l-0.067-0.056l-6.637,3.633l-0.225-0.185
		l2.482-7.239l-0.059-0.048l-3.131,3.806c-0.305,0.369-0.512,0.667-0.623,0.898c-0.111,0.229-0.152,0.426-0.126,0.589
		c0.015,0.117,0.102,0.289,0.262,0.516c0.16,0.228,0.271,0.369,0.331,0.423l-0.258,0.314l-2.57-2.115l0.258-0.314
		c0.145,0.099,0.304,0.192,0.479,0.281c0.174,0.088,0.329,0.132,0.465,0.133c0.173,0.002,0.35-0.068,0.532-0.21
		c0.182-0.142,0.44-0.417,0.776-0.825l2.687-3.265c0.155-0.189,0.26-0.362,0.313-0.519s0.069-0.307,0.047-0.451
		c-0.025-0.157-0.09-0.311-0.193-0.46c-0.102-0.15-0.217-0.282-0.344-0.396l0.258-0.313l2.172,1.786l-2.123,6.286l4.866-2.717
		c0.178-0.1,0.353-0.213,0.525-0.34s0.282-0.216,0.33-0.268l2.085,1.716l-0.258,0.313c-0.087-0.066-0.205-0.141-0.355-0.225
		c-0.15-0.083-0.264-0.139-0.342-0.167c-0.131-0.048-0.25-0.045-0.355,0.01c-0.104,0.054-0.197,0.131-0.279,0.229l-3.785,4.601
		c-0.086,0.105-0.141,0.208-0.164,0.31c-0.023,0.102-0.006,0.222,0.053,0.36c0.029,0.075,0.103,0.182,0.221,0.321
		c0.117,0.139,0.215,0.244,0.294,0.314L108.642,53.679z"/>
	<path d="M114.563,61.904l-2.13-2.972l0.33-0.236c0.079,0.104,0.188,0.234,0.329,0.388c0.139,0.155,0.248,0.251,0.328,0.289
		c0.13,0.054,0.25,0.076,0.359,0.066s0.223-0.056,0.34-0.14L119,55.801l-0.051-0.071l-7.348,1.803l-0.17-0.236l4.262-6.356
		l-0.043-0.062l-4.006,2.872c-0.389,0.278-0.666,0.514-0.832,0.708c-0.168,0.194-0.258,0.373-0.274,0.537
		c-0.017,0.117,0.024,0.306,0.12,0.566c0.096,0.261,0.166,0.426,0.211,0.494l-0.33,0.237l-1.939-2.705l0.33-0.237
		c0.113,0.132,0.244,0.264,0.391,0.394c0.145,0.13,0.283,0.213,0.414,0.248c0.166,0.046,0.356,0.024,0.568-0.066
		c0.213-0.09,0.533-0.29,0.963-0.597l3.436-2.464c0.199-0.143,0.345-0.283,0.438-0.42c0.092-0.138,0.146-0.279,0.162-0.424
		c0.015-0.159-0.008-0.324-0.068-0.495c-0.061-0.171-0.138-0.328-0.23-0.471l0.33-0.237l1.639,2.285l-3.67,5.528l5.402-1.374
		c0.197-0.051,0.396-0.115,0.595-0.193c0.199-0.079,0.329-0.136,0.388-0.174l1.573,2.194l-0.33,0.237
		c-0.067-0.086-0.162-0.189-0.286-0.308c-0.123-0.119-0.219-0.203-0.286-0.25c-0.115-0.08-0.23-0.107-0.346-0.082
		c-0.116,0.025-0.226,0.076-0.329,0.15l-4.843,3.472c-0.11,0.08-0.19,0.165-0.238,0.257c-0.049,0.092-0.063,0.213-0.042,0.361
		c0.01,0.08,0.053,0.202,0.131,0.367c0.077,0.165,0.146,0.291,0.203,0.379L114.563,61.904z"/>
	<path d="M119.471,67.655l-2.306,0.805l-2.671-6.316l0.373-0.158c0.053,0.104,0.129,0.24,0.227,0.408
		c0.1,0.168,0.172,0.273,0.22,0.316c0.102,0.091,0.205,0.141,0.31,0.149c0.105,0.008,0.223-0.016,0.355-0.072l5.472-2.314
		c0.118-0.05,0.214-0.114,0.288-0.192c0.075-0.078,0.115-0.19,0.119-0.339c0.006-0.116-0.008-0.263-0.041-0.439
		c-0.032-0.177-0.064-0.315-0.099-0.415l0.374-0.158l2.489,5.886l-1.827,0.773l-0.171-0.403c0.235-0.184,0.453-0.458,0.651-0.823
		c0.199-0.365,0.268-0.661,0.204-0.888c-0.032-0.117-0.078-0.254-0.137-0.411c-0.058-0.157-0.128-0.334-0.212-0.531l-0.507-1.198
		l-2.993,1.266l0.364,0.861c0.116,0.276,0.228,0.467,0.333,0.573s0.24,0.181,0.401,0.227c0.137,0.035,0.303,0.044,0.499,0.027
		c0.195-0.017,0.374-0.049,0.535-0.096l0.17,0.403l-2.979,1.26l-0.171-0.403c0.165-0.087,0.329-0.202,0.494-0.346
		c0.164-0.144,0.274-0.268,0.332-0.372c0.092-0.17,0.13-0.335,0.112-0.495c-0.018-0.16-0.075-0.356-0.174-0.59l-0.364-0.861
		l-2.271,0.96c-0.227,0.096-0.4,0.188-0.518,0.276c-0.117,0.087-0.191,0.192-0.219,0.313c-0.028,0.121-0.019,0.266,0.029,0.435
		c0.049,0.169,0.136,0.401,0.261,0.697c0.05,0.118,0.116,0.273,0.197,0.466c0.081,0.192,0.157,0.352,0.228,0.478
		c0.071,0.129,0.156,0.258,0.255,0.387c0.099,0.128,0.192,0.209,0.282,0.243c0.241,0.091,0.574,0.154,0.998,0.187
		c0.424,0.033,0.729,0.04,0.914,0.02L119.471,67.655z"/>
	<path d="M118.941,76.762l-0.45-2.176c0.651-0.636,1.212-1.204,1.679-1.704c0.468-0.501,0.945-1.038,1.434-1.612l-0.176-0.846
		l-2.552,0.527c-0.132,0.027-0.244,0.072-0.336,0.134c-0.092,0.063-0.149,0.167-0.175,0.314c-0.012,0.073-0.012,0.197,0,0.372
		c0.014,0.175,0.029,0.321,0.05,0.439l-0.397,0.083l-0.702-3.397l0.397-0.083c0.026,0.089,0.066,0.217,0.121,0.384
		s0.104,0.281,0.148,0.343c0.072,0.103,0.161,0.169,0.268,0.2c0.105,0.031,0.232,0.031,0.381,0.001l5.852-1.209
		c0.133-0.028,0.246-0.071,0.342-0.13c0.095-0.059,0.154-0.163,0.18-0.313c0.014-0.101,0.02-0.229,0.018-0.386
		c-0.002-0.156-0.011-0.288-0.025-0.394l0.398-0.083l0.77,3.726c0.07,0.341,0.102,0.669,0.094,0.983
		c-0.009,0.314-0.066,0.608-0.172,0.884c-0.104,0.267-0.264,0.495-0.48,0.686c-0.216,0.191-0.497,0.322-0.844,0.394
		c-0.312,0.064-0.598,0.074-0.856,0.028s-0.495-0.143-0.709-0.293c-0.198-0.137-0.384-0.313-0.552-0.527
		c-0.17-0.214-0.326-0.457-0.469-0.729c-0.445,0.508-0.82,0.931-1.126,1.27s-0.677,0.753-1.112,1.243
		c-0.193,0.214-0.33,0.4-0.41,0.558s-0.141,0.31-0.182,0.457c-0.029,0.109-0.042,0.24-0.038,0.394s0.015,0.28,0.03,0.38
		L118.941,76.762z M124.336,72.52c0.488-0.101,0.846-0.322,1.074-0.663c0.227-0.34,0.288-0.768,0.182-1.281l-0.201-0.971
		l-3.457,0.715l0.154,0.748c0.108,0.525,0.366,0.928,0.773,1.209C123.27,72.558,123.76,72.639,124.336,72.52z"/>
</g>
<g>
	<path fill="#1A1A1A" d="M72.515,101.263c-0.378-0.193-0.866-0.331-1.336-0.331c-0.46,0-1.078,0.185-1.078,0.737
		c0,1.031,2.192,0.967,2.192,2.754c0,1.575-1.234,2.146-2.644,2.146c-0.617,0-1.253-0.147-1.833-0.359l0.332-1.096
		c0.498,0.23,1.022,0.442,1.575,0.442c0.617,0,1.225-0.313,1.225-1.005c0-1.16-2.192-0.977-2.192-2.689
		c0-1.354,1.161-1.944,2.395-1.944c0.562,0,1.143,0.074,1.667,0.286L72.515,101.263z"/>
	<path fill="#1A1A1A" d="M74.054,101.715h1.234l-1.014,4.744H73.04L74.054,101.715z M74.505,99.669h1.234l-0.258,1.18h-1.234
		L74.505,99.669z"/>
	<path fill="#1A1A1A" d="M77.066,99.55h1.235l-1.465,6.909h-1.235L77.066,99.55z"/>
	<path fill="#1A1A1A" d="M78.577,101.715h1.262l0.479,3.482h0.018l1.871-3.482h1.308l-2.773,4.744h-1.363L78.577,101.715z"/>
	<path fill="#1A1A1A" d="M84.564,104.469c0,0.876,0.471,1.198,1.318,1.198c0.506,0,0.994-0.129,1.455-0.341l-0.156,0.977
		c-0.479,0.147-1.004,0.267-1.512,0.267c-1.363,0-2.284-0.663-2.284-2.072c0-1.475,1.143-2.894,2.699-2.894
		c1.171,0,1.944,0.6,1.944,1.806c0,0.359-0.047,0.71-0.12,1.06H84.564z M86.822,103.621c0.019-0.11,0.027-0.212,0.027-0.322
		c0-0.507-0.268-0.792-0.783-0.792c-0.764,0-1.096,0.461-1.336,1.114H86.822z"/>
	<path fill="#1A1A1A" d="M89.254,102.351c0.037-0.203,0.074-0.415,0.111-0.636h1.179l-0.165,0.894h0.018
		c0.221-0.517,0.829-1.005,1.4-1.005c0.156,0,0.322,0.01,0.47,0.047l-0.258,1.206c-0.138-0.046-0.313-0.073-0.47-0.073
		c-0.875,0-1.299,0.783-1.455,1.548l-0.443,2.128h-1.234L89.254,102.351z"/>
</g>
</svg>
